<?xml version="1.0" encoding="utf-8"?>
<!-- Generator: Adobe Illustrator 20.1.0, SVG Export Plug-In . SVG Version: 6.00 Build 0)  -->
<svg version="1.1" id="Layer_1" xmlns="http://www.w3.org/2000/svg" xmlns:xlink="http://www.w3.org/1999/xlink" x="0px" y="0px"
	 viewBox="0 0 100 30" style="enable-background:new 0 0 100 30;" xml:space="preserve">
<style type="text/css">
	.st0{fill:#F5D758;}
	.st1{fill:#323232;}
</style>
<g>
	<path class="st0" d="M8.4,28.5c-3.8,0-6.9-2.7-6.9-6.1v-12c0-3.3,3.1-6.1,6.9-6.1l76,0l13.3,12.1L84.4,28.5L8.4,28.5z"/>
	<path class="st1" d="M83.8,5.9l11.7,10.6L83.8,27L8.4,27c-3,0-5.4-2.1-5.4-4.6v-12c0-2.5,2.4-4.6,5.4-4.6L83.8,5.9 M85,2.9l-76.6,0
		C3.7,2.9,0,6.3,0,10.4v12C0,26.6,3.7,30,8.4,30L85,30l13.8-12.4c0.7-0.6,0.7-1.6,0-2.2L85,2.9L85,2.9z"/>
</g>
</svg>
